<svg width="632" height="624" viewBox="0 0 632 624" fill="none" xmlns="http://www.w3.org/2000/svg">
<path d="M258.714 35.4701C283.029 -10.57 348.971 -10.57 373.286 35.4701V35.4701C388.836 64.9128 424.172 77.7741 455.009 65.2147V65.2147C503.229 45.5753 553.744 87.9621 542.776 138.86V138.86C535.762 171.41 554.564 203.976 586.26 214.176V214.176C635.823 230.127 647.273 295.067 606.155 327.008V327.008C579.86 347.434 573.33 384.466 591.053 412.654V412.654C618.768 456.731 585.796 513.839 533.767 511.876V511.876C500.494 510.621 471.688 534.792 467.146 567.778V567.778C460.044 619.357 398.079 641.911 359.484 606.964V606.964C334.802 584.615 297.198 584.615 272.516 606.964V606.964C233.921 641.911 171.956 619.357 164.854 567.778V567.778C160.312 534.792 131.506 510.621 98.2329 511.876V511.876C46.2035 513.839 13.2325 456.731 40.9469 412.654V412.654C58.6702 384.466 52.1404 347.434 25.8451 327.008V327.008C-15.2732 295.067 -3.82251 230.127 45.7404 214.176V214.176C77.4359 203.976 96.2378 171.41 89.224 138.86V138.86C78.2565 87.9621 128.771 45.5753 176.991 65.2147V65.2147C207.828 77.7741 243.164 64.9128 258.714 35.4701V35.4701Z" fill="#D9D9D9"/>
</svg>
