<svg width="878" height="158" viewBox="0 0 878 158" fill="none" xmlns="http://www.w3.org/2000/svg">
<rect x="710" y="8" width="40" height="106" rx="20" fill="#EC4899"/>
<rect x="605.737" width="40" height="121.543" rx="20" transform="rotate(45 605.737 0)" fill="#EC4899"/>
<rect x="848.944" width="40" height="121.543" rx="20" transform="rotate(45 848.944 0)" fill="#0EA5E9"/>
<rect y="8" width="40" height="140" rx="20" fill="#EC4899"/>
<rect x="110" y="48" width="40" height="100" rx="20" fill="#0EA5E9"/>
<rect x="250" y="48" width="40" height="100" rx="20" fill="#0EA5E9"/>
<rect x="460" y="8" width="40" height="140" rx="20" fill="#84CC16"/>
<rect x="520" y="8" width="40" height="140" rx="20" fill="#0EA5E9"/>
<rect x="763.207" y="8" width="40" height="140" rx="20" fill="#84CC16"/>
<rect width="40" height="64.6821" rx="20" transform="matrix(0.707107 -0.707107 -0.707107 -0.707107 605.569 157.853)" fill="#84CC16"/>
<rect width="40" height="64.6821" rx="20" transform="matrix(0.707107 -0.707107 -0.707107 -0.707107 848.776 157.853)" fill="#EC4899"/>
<rect x="330" y="54" width="40" height="94" rx="20" fill="#0EA5E9"/>
<rect x="400" y="8" width="40" height="140" rx="20" fill="#EC4899"/>
<rect x="210" y="8" width="40" height="100" rx="20" transform="rotate(90 210 8)" fill="#84CC16"/>
<rect x="320" y="8" width="40" height="100" rx="20" transform="rotate(90 320 8)" fill="#EC4899"/>
<rect x="413.924" y="63.6396" width="40" height="90" rx="20" transform="rotate(135 413.924 63.6396)" fill="#84CC16"/>
<rect width="40" height="90" rx="20" transform="matrix(0.707107 0.707107 0.707107 -0.707107 357 63.6396)" fill="#EC4899"/>
<rect x="190" y="58" width="40" height="40" rx="20" transform="rotate(90 190 58)" fill="#EC4899"/>
<rect x="210" y="108" width="40" height="60" rx="20" transform="rotate(90 210 108)" fill="#84CC16"/>
<rect x="100" y="108" width="40" height="60" rx="20" transform="rotate(90 100 108)" fill="#84CC16"/>
<circle cx="695" cy="127" r="21" fill="#D9D9D9"/>
<rect x="710" y="56" width="40" height="58" rx="20" fill="#84CC16"/>
<rect x="640" y="50" width="40" height="58" rx="20" fill="#84CC16"/>
<path fill-rule="evenodd" clip-rule="evenodd" d="M710 91C710 99.2843 703.284 106 695 106C686.716 106 680 99.2843 680 91V43.0477V39V28C680 16.9543 671.046 8 660 8C648.954 8 640 16.9543 640 28V94.5172V95C640 95.2635 640.005 95.5257 640.015 95.7867C640.709 124.738 665.061 148 695 148C725.376 148 750 124.055 750 94.5172C750 94.4108 750 94.3044 749.999 94.1981C749.893 105.153 740.98 114 730 114C718.954 114 710 105.046 710 94V91Z" fill="#84CC16"/>
<rect x="640" y="8" width="40" height="100" rx="20" fill="#0EA5E9"/>
<rect x="640" y="71" width="40" height="37" rx="18.5" fill="#84CC16"/>
</svg>
